<?xml version="1.0" standalone="no"?>
<!DOCTYPE svg PUBLIC "-//W3C//DTD SVG 20010904//EN"
 "http://www.w3.org/TR/2001/REC-SVG-20010904/DTD/svg10.dtd">
<svg version="1.0" xmlns="http://www.w3.org/2000/svg"
 width="512.000000pt" height="512.000000pt" viewBox="0 0 512.000000 512.000000"
 preserveAspectRatio="xMidYMid meet">

<g transform="translate(0.000000,512.000000) scale(0.100000,-0.100000)"
fill="#000000" stroke="none">
<path d="M655 4935 c-226 -50 -396 -209 -454 -423 l-21 -78 0 -1874 0 -1874
21 -78 c51 -189 191 -337 384 -405 l80 -28 948 -3 947 -3 0 821 0 820 -300 0
-300 0 0 375 0 375 300 0 300 0 0 349 c0 386 5 438 60 580 59 153 189 317 324
411 72 49 203 108 296 132 81 22 103 23 450 23 l365 0 0 -375 0 -375 -257 -5
c-241 -5 -258 -6 -285 -26 -52 -39 -53 -45 -53 -391 l0 -323 371 0 c349 0 371
-1 365 -17 -4 -10 -71 -179 -148 -375 l-142 -358 -223 0 -223 0 0 -821 0 -820
503 3 502 3 85 33 c106 40 208 115 267 196 59 80 78 119 103 208 20 74 20 93
18 1969 l-3 1894 -23 68 c-48 140 -172 282 -301 343 -133 64 39 58 -2021 61
-1526 1 -1886 -1 -1935 -12z"/>
</g>
</svg>
