<?xml version="1.0" standalone="no"?>
<!DOCTYPE svg PUBLIC "-//W3C//DTD SVG 20010904//EN"
 "http://www.w3.org/TR/2001/REC-SVG-20010904/DTD/svg10.dtd">
<svg version="1.0" xmlns="http://www.w3.org/2000/svg"
 width="512.000000pt" height="512.000000pt" viewBox="0 0 512.000000 512.000000"
 preserveAspectRatio="xMidYMid meet">

<g transform="translate(0.000000,512.000000) scale(0.100000,-0.100000)"
fill="#000000" stroke="none">
<path d="M2387 5050 c-902 -57 -1708 -593 -2118 -1410 -184 -368 -263 -714
-262 -1145 0 -239 14 -373 59 -573 162 -729 676 -1382 1347 -1711 322 -158
438 -179 492 -89 19 33 19 31 17 354 l-2 192 -42 -11 c-58 -14 -316 -14 -405
1 -97 16 -171 45 -246 95 -78 53 -126 116 -174 231 -63 152 -159 285 -243 338
-97 61 -150 132 -121 161 7 7 45 12 95 12 75 0 89 -3 159 -38 99 -49 186 -129
255 -236 73 -113 139 -176 232 -220 74 -35 77 -36 200 -36 110 0 135 3 212 28
l86 29 17 74 c19 86 60 173 109 230 l34 40 -138 22 c-177 28 -290 61 -416 121
-294 140 -449 323 -543 639 -48 162 -56 230 -56 457 0 228 5 258 66 417 31 79
101 196 156 259 l31 35 -25 84 c-44 146 -35 337 23 521 23 74 25 77 60 82 48
8 165 -15 251 -49 121 -48 269 -120 344 -169 l74 -48 50 11 c251 57 334 66
595 66 261 0 344 -9 595 -66 49 -11 51 -10 113 30 158 102 395 205 513 223
109 16 122 9 153 -88 58 -184 66 -366 23 -512 l-25 -85 38 -45 c99 -117 184
-305 209 -461 14 -85 14 -311 0 -425 -34 -275 -138 -516 -288 -665 -176 -175
-424 -288 -737 -335 -55 -8 -105 -15 -112 -15 -7 0 6 -23 28 -52 54 -68 77
-113 102 -206 20 -71 22 -110 27 -529 l6 -453 31 -31 c45 -45 99 -44 229 5
331 123 643 324 896 577 410 409 662 919 736 1484 22 170 22 512 -1 675 -76
553 -319 1050 -704 1444 -533 543 -1241 814 -2005 766z"/>
</g>
</svg>
